# xmcd
#
# Track frame offsets: 
#        150
#        23325
#        40492
#        59860
#        80872
#        107979
#        129677
#        153547
#        174667
#        195395
#        219202
#
# Disc length: 2950 seconds
#
# Revision: 2
# Processed by: cddbd v1.5.2PL0 Copyright (c) Steve Scherf et al.
# Submitted via: ExactAudioCopy v0.95a5
#
DISCID=9c0b840b
DTITLE=Various / Jazziz 2000 12 December
DYEAR=2000
DGENRE=Jazz
TTITLE0=Cyrus Chestnut & Friends / What Child is This
TTITLE1=Gregg Karukas & Shelby Flint / Silent Night + Oh Tannenbaum
TTITLE2=Jonathan Butler / The Christmas Song
TTITLE3=Boney James / Have Yourself a Merry Little Christmas
TTITLE4=Patricia Barber / Santa Claus is Coming to Town
TTITLE5=Steve Laury / God Rest Ye Merry Gentlemen
TTITLE6=Candy Dulfer / Silver Bells
TTITLE7=Stanley Clarke, Patricia Rushen, Ndugu Chancler / Christmas Ti
TTITLE7=me is Here
TTITLE8=Michael Paulo / The First Noel
TTITLE9=Various Artist / It Came Upon a Midnight Clear
EXTD=
EXTT0=
EXTT1=
EXTT2=
EXTT3=
EXTT4=
EXTT5=
EXTT6=
EXTT7=
EXTT8=
EXTT9=
PLAYORDER=
.
